<svg width="268" height="48" viewBox="0 0 268 48" fill="none" xmlns="http://www.w3.org/2000/svg">
<path d="M21.2218 0.257101C19.8537 0.357758 18.7822 1.47618 18.7822 2.84065C18.7822 2.91574 18.7854 2.98924 18.7919 3.06273V6.0553C17.8875 6.357 17.1291 6.67033 16.4013 7.02715L16.4041 7.02992L16.2955 7.07945C16.3307 7.06191 16.366 7.04448 16.4013 7.02715L14.2578 4.89534C13.7731 4.33294 13.055 3.97984 12.2542 3.97984C11.5944 3.97984 10.993 4.2195 10.531 4.61414L5.38098 9.69016C4.9822 10.1423 4.73905 10.7367 4.73905 11.3854C4.73905 12.1746 5.0973 12.8824 5.66304 13.357L7.82065 15.4836C7.4851 16.1275 7.14954 16.9072 6.8691 17.7124L6.83019 17.8434L3.78263 17.8291C3.71779 17.8243 3.64322 17.8211 3.56703 17.8211C2.18266 17.8211 1.04793 18.8772 0.945801 20.2161V27.4059C1.04631 28.7544 2.18266 29.8105 3.56703 29.8105C3.64322 29.8105 3.71779 29.8073 3.79236 29.8009H6.83019C7.13662 30.6933 7.45486 31.4429 7.81878 32.161L7.82227 32.1576L7.8709 32.263C7.85342 32.2291 7.83605 32.1951 7.81878 32.161L5.65818 34.2666C5.08919 34.7459 4.73094 35.4553 4.73094 36.2462C4.73094 36.8965 4.97248 37.4908 5.37287 37.9462L10.5229 43.0206C10.9266 43.4137 11.481 43.6581 12.0953 43.6581H12.1278C12.9626 43.6374 13.7115 43.2891 14.2481 42.7378L16.4057 40.6112C17.059 40.942 17.8501 41.2727 18.6671 41.5491L18.8 41.5891L18.7854 44.5896C18.7805 44.6535 18.7773 44.727 18.7773 44.8005C18.7773 46.165 19.8488 47.285 21.2072 47.3841H24.8595L24.9227 45.0154L21.3483 45.0338C21.264 44.9267 21.2121 44.7893 21.2121 44.6407C21.2121 44.628 21.2121 44.6152 21.2137 44.6024L21.2332 40.7502C21.2332 40.7231 21.2202 40.6991 21.217 40.6735C21.2089 40.5889 21.1927 40.5106 21.1683 40.4355L21.17 40.4435C21.1505 40.3588 21.1246 40.2837 21.0921 40.2118L21.0954 40.2198C21.0111 40.0824 20.9187 39.9642 20.8149 39.8571C20.7679 39.8188 20.7144 39.7836 20.6593 39.7517L20.6528 39.7485C20.5815 39.7005 20.5021 39.659 20.4162 39.627L20.4081 39.6238C20.3854 39.6158 20.3692 39.5983 20.3448 39.5919C18.9767 39.2082 17.784 38.7103 16.6737 38.0903C16.5294 38.0253 16.3653 37.9877 16.1917 37.9877C16.1561 37.9861 16.1269 37.9941 16.0912 37.9957C15.7994 38.0085 15.5368 38.1236 15.3374 38.3041C15.3245 38.3169 15.305 38.3105 15.292 38.3233L12.5282 41.0474C12.3547 41.2184 12.178 41.2695 12.2396 41.3318L7.15927 36.3772C7.17872 36.2174 7.25653 36.0784 7.37 35.9778L10.1485 33.2696L10.1663 33.2281C10.3527 33.0316 10.4727 32.7711 10.4857 32.4835V32.4803C10.4873 32.4468 10.4938 32.4212 10.4938 32.3877V32.3829C10.4938 32.1816 10.4419 31.9914 10.3511 31.8269L10.3543 31.8332C9.76266 30.8171 9.25366 29.6427 8.89054 28.4061L8.86136 28.2911C8.85488 28.2671 8.83543 28.2495 8.82732 28.2255C8.75924 28.0754 8.68143 27.9443 8.59065 27.8261L8.59389 27.8309C8.48852 27.7334 8.37343 27.644 8.25023 27.5673L8.2405 27.5625C8.15783 27.5225 8.06381 27.4906 7.9633 27.4714L7.9552 27.4698C7.90819 27.4554 7.84983 27.4443 7.78985 27.4363H7.78337C7.75095 27.4331 7.72339 27.4171 7.68935 27.4171H3.77939C3.53299 27.4203 3.37737 27.3292 3.37413 27.4139L3.33846 20.3695C3.44707 20.2864 3.58324 20.2353 3.734 20.2353C3.74859 20.2353 3.76156 20.2352 3.77615 20.2368L7.69097 20.256C7.93737 20.2496 8.16431 20.1697 8.35073 20.0387L8.34749 20.0419C8.3864 20.0196 8.41882 19.9972 8.45124 19.9732L8.448 19.9748C8.62469 19.8342 8.75762 19.6457 8.82894 19.43L8.83056 19.422C8.83543 19.406 8.85326 19.3996 8.85812 19.3821C9.24788 18.0375 9.75126 16.868 10.3794 15.7764C10.4487 15.6299 10.4889 15.4626 10.4889 15.2854V15.2823C10.4905 15.2519 10.484 15.2295 10.4824 15.1992C10.4711 14.9052 10.3527 14.64 10.1631 14.4402L10.1469 14.4019L7.38297 11.6778C7.21783 11.512 7.15942 11.3448 7.10707 11.384L7.09767 11.3934C7.10079 11.3895 7.10392 11.3864 7.10707 11.384L12.1261 6.38603C12.2899 6.39882 12.4325 6.4787 12.5282 6.59534L12.5298 6.59694L15.2807 9.33387C15.3099 9.36262 15.3553 9.35144 15.3861 9.377C15.5887 9.57033 15.8643 9.69016 16.169 9.69016C16.3798 9.69016 16.5759 9.63264 16.7445 9.53358L16.7396 9.53678C17.7706 8.9552 18.9637 8.45511 20.2168 8.09562L20.3335 8.06686C20.3562 8.06047 20.3724 8.04289 20.3951 8.0365C20.4875 8.00295 20.5653 7.96141 20.6399 7.91347L20.635 7.91667C20.8992 7.77287 21.0905 7.52682 21.1554 7.23443L21.157 7.22804C21.1797 7.15934 21.1975 7.07945 21.2056 6.99637V6.99158C21.2072 6.96601 21.2202 6.94365 21.2202 6.91808V3.06433C21.2202 2.82307 21.311 2.66649 21.2218 2.6649L24.7962 2.64652L24.8659 0.257101H21.2218Z" fill="#212121"/>
<path d="M24.8562 16.2361C24.0912 16.2361 23.3522 16.3461 22.6546 16.551C19.4751 17.4847 17.1562 20.3885 17.1562 23.8254C17.1562 27.2622 19.4751 30.1661 22.6546 31.0998C23.3522 31.3046 24.0912 31.4146 24.8562 31.4146V29.018C21.9464 29.018 19.5878 26.6933 19.5878 23.8254C19.5878 20.9574 21.9464 18.6327 24.8562 18.6327V16.2361Z" fill="#212121"/>
<path d="M47.1214 0.693639C49.2937 0.693639 51.159 1.07143 52.7174 1.82701C54.2994 2.55899 55.5037 3.59791 56.3301 4.94379C57.1801 6.28968 57.6051 7.85987 57.6051 9.65438C57.6051 11.4489 57.1801 13.0191 56.3301 14.365C55.5037 15.7109 54.2994 16.7616 52.7174 17.5172C51.159 18.2491 49.2937 18.6151 47.1214 18.6151H35.5043V13.1962H46.7672C48.0423 13.1962 49.0458 12.8892 49.7778 12.2753C50.5097 11.6378 50.8757 10.7641 50.8757 9.65438C50.8757 8.54462 50.5097 7.68278 49.7778 7.06887C49.0458 6.43135 48.0423 6.11259 46.7672 6.11259H36.1064L39.1169 2.99581V27.2571H32.423V0.693639H47.1214Z" fill="#212121"/>
<path d="M60.1126 21.909V16.5255H78.4591V21.909H60.1126ZM73.7839 0.693639L86.0385 27.2571H78.9195L68.4004 3.49166H70.4546L59.9709 27.2571H52.8519L65.1065 0.693639H73.7839Z" fill="#212121"/>
<path d="M113.856 16.2775C113.597 18.5679 112.806 20.5867 111.483 22.334C110.161 24.0577 108.414 25.4036 106.241 26.3717C104.069 27.3398 101.59 27.8238 98.8037 27.8238C95.7577 27.8238 93.0778 27.2453 90.7638 26.0883C88.4734 24.9313 86.6907 23.3139 85.4157 21.2361C84.1406 19.1582 83.5031 16.738 83.5031 13.9754C83.5031 11.2128 84.1406 8.79255 85.4157 6.71469C86.6907 4.63684 88.4734 3.01942 90.7638 1.86243C93.0778 0.705447 95.7577 0.126953 98.8037 0.126953C101.59 0.126953 104.069 0.610999 106.241 1.57909C108.414 2.54718 110.161 3.89306 111.483 5.61674C112.806 7.34041 113.597 9.35923 113.856 11.6732H107.127C106.891 10.469 106.407 9.44188 105.675 8.59185C104.966 7.74181 104.022 7.09249 102.841 6.64386C101.684 6.17162 100.338 5.9355 98.8037 5.9355C97.0328 5.9355 95.5098 6.26607 94.2348 6.9272C92.9597 7.56472 91.9798 8.48559 91.2951 9.6898C90.6103 10.894 90.268 12.3225 90.268 13.9754C90.268 15.6282 90.6103 17.0567 91.2951 18.2609C91.9798 19.4652 92.9597 20.3978 94.2348 21.059C95.5098 21.6965 97.0328 22.0153 98.8037 22.0153C100.338 22.0153 101.684 21.7909 102.841 21.3423C104.022 20.8937 104.966 20.2444 105.675 19.3943C106.407 18.5443 106.891 17.5054 107.127 16.2775H113.856Z" fill="#212121"/>
<path d="M115.121 27.2571V0.693639H121.78V21.909L119.973 20.5277L135.699 0.693639H142.783L121.142 27.2571H115.121ZM127.836 14.4004L132.653 10.2565L143.137 27.2571H135.557L127.836 14.4004Z" fill="#212121"/>
<path d="M147.754 12.3816H157.706C158.957 12.3816 159.949 12.0982 160.681 11.5315C161.413 10.9412 161.779 10.1266 161.779 9.0877C161.779 8.04877 161.413 7.24596 160.681 6.67928C159.949 6.08898 158.957 5.79383 157.706 5.79383H146.797L149.808 2.49996V27.2571H143.114V0.693639H158.591C160.575 0.693639 162.31 1.04782 163.798 1.75618C165.285 2.46454 166.442 3.44443 167.269 4.69587C168.095 5.9473 168.508 7.41125 168.508 9.0877C168.508 10.7405 168.095 12.1927 167.269 13.4441C166.442 14.6955 165.285 15.6754 163.798 16.3838C162.31 17.0685 160.575 17.4109 158.591 17.4109H147.754V12.3816ZM152.039 14.8254H159.583L169.358 27.2571H161.602L152.039 14.8254Z" fill="#212121"/>
<path d="M170.38 0.693639H177.074V27.2571H170.38V0.693639Z" fill="#212121"/>
<path d="M206.824 15.7463C206.777 17.3519 206.458 18.8867 205.867 20.3506C205.277 21.7909 204.427 23.0778 203.317 24.2112C202.208 25.3209 200.838 26.2064 199.209 26.8675C197.58 27.505 195.679 27.8238 193.507 27.8238C191.429 27.8238 189.481 27.5168 187.663 26.9029C185.868 26.289 184.286 25.3918 182.917 24.2112C181.547 23.007 180.485 21.5548 179.729 19.8548C178.973 18.1311 178.596 16.1713 178.596 13.9754C178.596 11.7795 178.973 9.83147 179.729 8.13141C180.508 6.40774 181.583 4.9556 182.952 3.775C184.345 2.57079 185.963 1.66173 187.804 1.04782C189.67 0.433909 191.7 0.126953 193.896 0.126953C196.753 0.126953 199.232 0.57558 201.334 1.47284C203.459 2.37009 205.159 3.59791 206.434 5.1563C207.733 6.71469 208.559 8.5092 208.913 10.5398H202.149C201.912 9.54813 201.417 8.6981 200.661 7.98974C199.905 7.25777 198.949 6.70289 197.792 6.3251C196.659 5.9473 195.36 5.75841 193.896 5.75841C192.125 5.75841 190.602 6.07717 189.327 6.71469C188.052 7.3286 187.061 8.24947 186.352 9.47729C185.644 10.6815 185.29 12.1809 185.29 13.9754C185.29 15.7699 185.656 17.2929 186.388 18.5443C187.143 19.7957 188.206 20.7402 189.575 21.3777C190.968 22.0153 192.598 22.334 194.463 22.334C196.281 22.334 197.875 22.0625 199.244 21.5194C200.637 20.9763 201.735 20.1971 202.538 19.1818C203.365 18.1665 203.837 16.9505 203.955 15.5338L206.824 15.7463ZM195.242 18.438V13.692H209.161V27.2571H204.38L203.459 16.6317L204.805 18.438H195.242Z" fill="#212121"/>
<path d="M211.25 0.693639H217.944V27.2571H211.25V0.693639ZM232.36 0.693639H239.018V27.2571H232.36V0.693639ZM214.969 10.8586H235.193V16.738H214.969V10.8586Z" fill="#212121"/>
<path d="M250.127 3.63333H256.821V27.2571H250.127V3.63333ZM239.785 0.693639H267.163V6.60844H239.785V0.693639Z" fill="#212121"/>
<path d="M30.5774 42.3571H34.3974C34.4641 42.8104 34.6708 43.2104 35.0174 43.5571C35.3641 43.9038 35.8241 44.1704 36.3974 44.3571C36.9841 44.5438 37.6641 44.6371 38.4374 44.6371C39.5441 44.6371 40.4108 44.4838 41.0374 44.1771C41.6774 43.8704 41.9974 43.4371 41.9974 42.8771C41.9974 42.4504 41.8108 42.1238 41.4374 41.8971C41.0774 41.6571 40.3974 41.4838 39.3974 41.3771L36.4974 41.0771C34.4841 40.8771 33.0241 40.4104 32.1174 39.6771C31.2241 38.9438 30.7774 37.9438 30.7774 36.6771C30.7774 35.6771 31.0708 34.8238 31.6574 34.1171C32.2574 33.4104 33.0908 32.8704 34.1574 32.4971C35.2374 32.1238 36.4974 31.9371 37.9374 31.9371C39.3641 31.9371 40.6241 32.1438 41.7174 32.5571C42.8108 32.9704 43.6841 33.5438 44.3374 34.2771C44.9908 35.0104 45.3441 35.8638 45.3974 36.8371H41.5774C41.5241 36.4371 41.3374 36.0971 41.0174 35.8171C40.7108 35.5238 40.2908 35.2971 39.7574 35.1371C39.2374 34.9638 38.6041 34.8771 37.8574 34.8771C36.8574 34.8771 36.0574 35.0238 35.4574 35.3171C34.8708 35.5971 34.5774 36.0038 34.5774 36.5371C34.5774 36.9371 34.7508 37.2504 35.0974 37.4771C35.4574 37.7038 36.0908 37.8704 36.9974 37.9771L40.0574 38.3171C41.4574 38.4638 42.5774 38.6971 43.4174 39.0171C44.2574 39.3371 44.8641 39.7771 45.2374 40.3371C45.6108 40.8971 45.7974 41.6038 45.7974 42.4571C45.7974 43.4838 45.4841 44.3838 44.8574 45.1571C44.2441 45.9171 43.3774 46.5104 42.2574 46.9371C41.1508 47.3638 39.8574 47.5771 38.3774 47.5771C36.8441 47.5771 35.4974 47.3571 34.3374 46.9171C33.1908 46.4771 32.2841 45.8704 31.6174 45.0971C30.9641 44.3104 30.6174 43.3971 30.5774 42.3571Z" fill="#212121"/>
<path d="M54.6976 47.5771C52.9376 47.5771 51.3909 47.2504 50.0576 46.5971C48.7376 45.9438 47.7109 45.0304 46.9776 43.8571C46.2443 42.6838 45.8776 41.3171 45.8776 39.7571C45.8776 38.1971 46.2443 36.8304 46.9776 35.6571C47.7109 34.4838 48.7376 33.5704 50.0576 32.9171C51.3909 32.2638 52.9376 31.9371 54.6976 31.9371C56.4576 31.9371 57.9976 32.2638 59.3176 32.9171C60.6509 33.5704 61.6843 34.4838 62.4176 35.6571C63.1643 36.8304 63.5376 38.1971 63.5376 39.7571C63.5376 41.3171 63.1643 42.6838 62.4176 43.8571C61.6843 45.0304 60.6509 45.9438 59.3176 46.5971C57.9976 47.2504 56.4576 47.5771 54.6976 47.5771ZM54.6976 44.1971C55.7376 44.1971 56.6309 44.0238 57.3776 43.6771C58.1243 43.3171 58.6976 42.8038 59.0976 42.1371C59.5109 41.4704 59.7176 40.6771 59.7176 39.7571C59.7176 38.8371 59.5109 38.0438 59.0976 37.3771C58.6976 36.7104 58.1243 36.2038 57.3776 35.8571C56.6309 35.4971 55.7376 35.3171 54.6976 35.3171C53.6709 35.3171 52.7843 35.4971 52.0376 35.8571C51.2909 36.2038 50.7109 36.7104 50.2976 37.3771C49.8843 38.0438 49.6776 38.8371 49.6776 39.7571C49.6776 40.6771 49.8843 41.4704 50.2976 42.1371C50.7109 42.8038 51.2909 43.3171 52.0376 43.6771C52.7843 44.0238 53.6709 44.1971 54.6976 44.1971Z" fill="#212121"/>
<path d="M68.1563 32.2571V45.5771L66.4563 43.9171H77.6964V47.2571H64.3763V32.2571H68.1563Z" fill="#212121"/>
<path d="M81.0485 40.6171C81.0485 41.3504 81.1885 41.9904 81.4685 42.5371C81.7619 43.0704 82.1819 43.4838 82.7285 43.7771C83.2752 44.0571 83.9485 44.1971 84.7485 44.1971C85.5619 44.1971 86.2419 44.0571 86.7885 43.7771C87.3352 43.4838 87.7485 43.0704 88.0285 42.5371C88.3085 41.9904 88.4485 41.3504 88.4485 40.6171V32.2571H92.2085V40.7971C92.2085 42.1571 91.8952 43.3438 91.2685 44.3571C90.6552 45.3704 89.7885 46.1638 88.6685 46.7371C87.5485 47.2971 86.2419 47.5771 84.7485 47.5771C83.2552 47.5771 81.9485 47.2971 80.8285 46.7371C79.7085 46.1638 78.8352 45.3704 78.2085 44.3571C77.5819 43.3438 77.2685 42.1571 77.2685 40.7971V32.2571H81.0485V40.6171Z" fill="#212121"/>
<path d="M98.289 33.9171H102.069V47.2571H98.289V33.9171ZM92.449 32.2571H107.909V35.5971H92.449V32.2571Z" fill="#212121"/>
<path d="M108.321 32.2571H112.101V47.2571H108.321V32.2571Z" fill="#212121"/>
<path d="M121.76 47.5771C120 47.5771 118.453 47.2504 117.12 46.5971C115.8 45.9438 114.773 45.0304 114.04 43.8571C113.307 42.6838 112.94 41.3171 112.94 39.7571C112.94 38.1971 113.307 36.8304 114.04 35.6571C114.773 34.4838 115.8 33.5704 117.12 32.9171C118.453 32.2638 120 31.9371 121.76 31.9371C123.52 31.9371 125.06 32.2638 126.38 32.9171C127.713 33.5704 128.747 34.4838 129.48 35.6571C130.227 36.8304 130.6 38.1971 130.6 39.7571C130.6 41.3171 130.227 42.6838 129.48 43.8571C128.747 45.0304 127.713 45.9438 126.38 46.5971C125.06 47.2504 123.52 47.5771 121.76 47.5771ZM121.76 44.1971C122.8 44.1971 123.693 44.0238 124.44 43.6771C125.187 43.3171 125.76 42.8038 126.16 42.1371C126.573 41.4704 126.78 40.6771 126.78 39.7571C126.78 38.8371 126.573 38.0438 126.16 37.3771C125.76 36.7104 125.187 36.2038 124.44 35.8571C123.693 35.4971 122.8 35.3171 121.76 35.3171C120.733 35.3171 119.847 35.4971 119.1 35.8571C118.353 36.2038 117.773 36.7104 117.36 37.3771C116.947 38.0438 116.74 38.8371 116.74 39.7571C116.74 40.6771 116.947 41.4704 117.36 42.1371C117.773 42.8038 118.353 43.3171 119.1 43.6771C119.847 44.0238 120.733 44.1971 121.76 44.1971Z" fill="#212121"/>
<path d="M145.339 44.6771L144.119 44.8971V32.2571H147.779V47.2571H143.019L133.879 34.6171L135.099 34.3971V47.2571H131.439V32.2571H136.339L145.339 44.6771Z" fill="#212121"/>
<path d="M148.577 42.3571H152.397C152.463 42.8104 152.67 43.2104 153.017 43.5571C153.363 43.9038 153.823 44.1704 154.397 44.3571C154.983 44.5438 155.663 44.6371 156.437 44.6371C157.543 44.6371 158.41 44.4838 159.037 44.1771C159.677 43.8704 159.997 43.4371 159.997 42.8771C159.997 42.4504 159.81 42.1238 159.437 41.8971C159.077 41.6571 158.397 41.4838 157.397 41.3771L154.497 41.0771C152.483 40.8771 151.023 40.4104 150.117 39.6771C149.223 38.9438 148.777 37.9438 148.777 36.6771C148.777 35.6771 149.07 34.8238 149.657 34.1171C150.257 33.4104 151.09 32.8704 152.157 32.4971C153.237 32.1238 154.497 31.9371 155.937 31.9371C157.363 31.9371 158.623 32.1438 159.717 32.5571C160.81 32.9704 161.683 33.5438 162.337 34.2771C162.99 35.0104 163.343 35.8638 163.397 36.8371H159.577C159.523 36.4371 159.337 36.0971 159.017 35.8171C158.71 35.5238 158.29 35.2971 157.757 35.1371C157.237 34.9638 156.603 34.8771 155.857 34.8771C154.857 34.8771 154.057 35.0238 153.457 35.3171C152.87 35.5971 152.577 36.0038 152.577 36.5371C152.577 36.9371 152.75 37.2504 153.097 37.4771C153.457 37.7038 154.09 37.8704 154.997 37.9771L158.057 38.3171C159.457 38.4638 160.577 38.6971 161.417 39.0171C162.257 39.3371 162.863 39.7771 163.237 40.3371C163.61 40.8971 163.797 41.6038 163.797 42.4571C163.797 43.4838 163.483 44.3838 162.857 45.1571C162.243 45.9171 161.377 46.5104 160.257 46.9371C159.15 47.3638 157.857 47.5771 156.377 47.5771C154.843 47.5771 153.497 47.3571 152.337 46.9171C151.19 46.4771 150.283 45.8704 149.617 45.0971C148.963 44.3104 148.617 43.3971 148.577 42.3571Z" fill="#212121"/>
</svg>
