<svg width="419" height="71" viewBox="0 0 419 71" fill="none" xmlns="http://www.w3.org/2000/svg">
<path d="M65.6054 0.84783C68.7985 0.84783 71.5404 1.41312 73.831 2.54371C76.1564 3.63896 77.9265 5.19351 79.1413 7.20737C80.3907 9.22122 81.0155 11.5707 81.0155 14.2559C81.0155 16.941 80.3907 19.2905 79.1413 21.3043C77.9265 23.3182 76.1564 24.8904 73.831 26.021C71.5404 27.1163 68.7985 27.6639 65.6054 27.6639H48.5293V19.5555H65.0848C66.959 19.5555 68.434 19.0962 69.51 18.1776C70.5859 17.2236 71.1239 15.9164 71.1239 14.2559C71.1239 12.5953 70.5859 11.3057 69.51 10.3871C68.434 9.43321 66.959 8.95624 65.0848 8.95624H49.4144L53.8396 4.29258V40.5949H44V0.84783H65.6054Z" fill="#EFEBE0"/>
<path d="M88.3455 32.5925V24.5371H115.313V32.5925H88.3455ZM108.441 0.84783L126.454 40.5949H115.99L100.528 5.03453H103.547L88.1373 40.5949H77.673L95.6862 0.84783H108.441Z" fill="#EFEBE0"/>
<path d="M170.988 24.1661C170.606 27.5932 169.444 30.614 167.5 33.2285C165.556 35.8076 162.988 37.8215 159.795 39.27C156.602 40.7186 152.958 41.4429 148.862 41.4429C144.385 41.4429 140.446 40.5773 137.044 38.8461C133.678 37.1149 131.057 34.6947 129.183 31.5856C127.309 28.4765 126.372 24.8551 126.372 20.7214C126.372 16.5877 127.309 12.9663 129.183 9.85717C131.057 6.74807 133.678 4.32791 137.044 2.59671C140.446 0.865497 144.385 -0.000106812 148.862 -0.000106812C152.958 -0.000106812 156.602 0.724174 159.795 2.17274C162.988 3.6213 165.556 5.63515 167.5 8.2143C169.444 10.7934 170.606 13.8142 170.988 17.2766H161.097C160.749 15.4748 160.038 13.9379 158.962 12.666C157.921 11.3941 156.533 10.4225 154.797 9.75118C153.096 9.04457 151.118 8.69126 148.862 8.69126C146.259 8.69126 144.02 9.18589 142.146 10.1752C140.272 11.1291 138.832 12.507 137.825 14.3089C136.819 16.1107 136.315 18.2482 136.315 20.7214C136.315 23.1945 136.819 25.332 137.825 27.1339C138.832 28.9358 140.272 30.3313 142.146 31.3206C144.02 32.2745 146.259 32.7515 148.862 32.7515C151.118 32.7515 153.096 32.4159 154.797 31.7446C156.533 31.0733 157.921 30.1017 158.962 28.8298C160.038 27.5579 160.749 26.0033 161.097 24.1661H170.988Z" fill="#EFEBE0"/>
<path d="M176.492 40.5949V0.84783H186.279V32.5925L183.624 30.5257L206.739 0.84783H217.151L185.342 40.5949H176.492ZM195.182 21.3573L202.262 15.1568L217.672 40.5949H206.531L195.182 21.3573Z" fill="#EFEBE0"/>
<path d="M228.103 18.3366H242.732C244.571 18.3366 246.029 17.9126 247.105 17.0646C248.181 16.1814 248.719 14.9625 248.719 13.4079C248.719 11.8534 248.181 10.6521 247.105 9.80418C246.029 8.92091 244.571 8.47928 242.732 8.47928H226.697L231.122 3.55063V40.5949H221.283V0.84783H244.033C246.949 0.84783 249.5 1.37779 251.686 2.43772C253.873 3.49764 255.573 4.96386 256.788 6.83639C258.003 8.70892 258.61 10.8994 258.61 13.4079C258.61 15.8811 258.003 18.0539 256.788 19.9264C255.573 21.799 253.873 23.2652 251.686 24.3251C249.5 25.3497 246.949 25.862 244.033 25.862H228.103V18.3366ZM234.402 21.9933H245.491L259.86 40.5949H248.458L234.402 21.9933Z" fill="#EFEBE0"/>
<path d="M265.006 0.84783H274.845V40.5949H265.006V0.84783Z" fill="#EFEBE0"/>
<path d="M322.219 23.3712C322.149 25.7737 321.681 28.0702 320.813 30.2607C319.946 32.4159 318.696 34.3414 317.065 36.0373C315.434 37.6978 313.421 39.0227 311.026 40.012C308.631 40.9659 305.837 41.4429 302.644 41.4429C299.59 41.4429 296.726 40.9836 294.054 40.065C291.416 39.1464 289.091 37.8038 287.078 36.0373C285.065 34.2354 283.503 32.0626 282.392 29.5187C281.281 26.9396 280.726 24.0071 280.726 20.7214C280.726 17.4356 281.281 14.5208 282.392 11.977C283.537 9.39787 285.117 7.22503 287.13 5.45849C289.177 3.65663 291.555 2.29639 294.262 1.37779C297.004 0.459193 299.989 -0.000106812 303.217 -0.000106812C307.416 -0.000106812 311.06 0.671177 314.149 2.01375C317.273 3.35631 319.772 5.19351 321.646 7.52535C323.555 9.85717 324.77 12.5423 325.29 15.5808H315.347C315 14.0969 314.271 12.825 313.16 11.765C312.05 10.6698 310.644 9.83951 308.943 9.27422C307.277 8.70892 305.368 8.42628 303.217 8.42628C300.613 8.42628 298.375 8.90324 296.501 9.85717C294.626 10.7758 293.169 12.1537 292.128 13.9909C291.086 15.7927 290.566 18.0362 290.566 20.7214C290.566 23.4065 291.104 25.6854 292.18 27.5579C293.29 29.4304 294.852 30.8436 296.865 31.7976C298.913 32.7515 301.308 33.2285 304.05 33.2285C306.722 33.2285 309.065 32.8222 311.078 32.0096C313.126 31.197 314.739 30.031 315.919 28.5118C317.134 26.9926 317.828 25.1731 318.002 23.0532L322.219 23.3712ZM305.195 27.3989V20.2974H325.655V40.5949H318.627L317.273 24.6961L319.251 27.3989H305.195Z" fill="#EFEBE0"/>
<path d="M332.37 0.84783H342.21V40.5949H332.37V0.84783ZM363.398 0.84783H373.186V40.5949H363.398V0.84783ZM337.836 16.0577H367.563V24.8551H337.836V16.0577Z" fill="#EFEBE0"/>
<path d="M393.16 5.24651H403V40.5949H393.16V5.24651ZM377.958 0.84783H418.201V9.69819H377.958V0.84783Z" fill="#EFEBE0"/>
<path d="M44 63.1325H49.615C49.713 63.8109 50.0168 64.4094 50.5264 64.9281C51.036 65.4468 51.7121 65.8458 52.5549 66.1251C53.4172 66.4045 54.4167 66.5441 55.5535 66.5441C57.1802 66.5441 58.4541 66.3147 59.3752 65.8558C60.316 65.3969 60.7864 64.7486 60.7864 63.9106C60.7864 63.2722 60.512 62.7834 59.9632 62.4442C59.434 62.0851 58.4345 61.8258 56.9646 61.6662L52.7019 61.2173C49.7424 60.918 47.5964 60.2197 46.2637 59.1224C44.9505 58.0251 44.294 56.5288 44.294 54.6335C44.294 53.1372 44.7252 51.8604 45.5875 50.803C46.4694 49.7456 47.6944 48.9376 49.2623 48.379C50.8498 47.8203 52.7019 47.541 54.8185 47.541C56.9156 47.541 58.7677 47.8503 60.3748 48.4687C61.9819 49.0872 63.2656 49.9451 64.2259 51.0424C65.1863 52.1397 65.7056 53.4165 65.784 54.8729H60.169C60.0906 54.2744 59.8162 53.7657 59.3458 53.3467C58.8951 52.9078 58.2777 52.5686 57.4938 52.3292C56.7294 52.0698 55.7985 51.9402 54.7009 51.9402C53.231 51.9402 52.0551 52.1596 51.1732 52.5985C50.3108 53.0175 49.8796 53.626 49.8796 54.424C49.8796 55.0226 50.1344 55.4914 50.644 55.8306C51.1732 56.1697 52.1041 56.4191 53.4368 56.5787L57.9347 57.0875C59.9926 57.3069 61.6389 57.6561 62.8736 58.1349C64.1084 58.6137 65.0001 59.2721 65.5489 60.11C66.0976 60.9479 66.372 62.0053 66.372 63.2822C66.372 64.8184 65.9114 66.1651 64.9903 67.3222C64.0888 68.4594 62.8148 69.3472 61.1685 69.9856C59.5418 70.6241 57.6407 70.9433 55.4653 70.9433C53.2114 70.9433 51.2319 70.6141 49.5269 69.9557C47.8414 69.2973 46.5086 68.3896 45.5287 67.2324C44.5684 66.0553 44.0588 64.6887 44 63.1325Z" fill="#EFEBE0"/>
<path d="M81.5123 70.9433C78.9253 70.9433 76.6518 70.4545 74.6919 69.4769C72.7516 68.4993 71.2425 67.1327 70.1646 65.377C69.0867 63.6213 68.5477 61.5764 68.5477 59.2421C68.5477 56.9079 69.0867 54.863 70.1646 53.1073C71.2425 51.3516 72.7516 49.985 74.6919 49.0074C76.6518 48.0298 78.9253 47.541 81.5123 47.541C84.0993 47.541 86.363 48.0298 88.3033 49.0074C90.2631 49.985 91.7821 51.3516 92.86 53.1073C93.9575 54.863 94.5063 56.9079 94.5063 59.2421C94.5063 61.5764 93.9575 63.6213 92.86 65.377C91.7821 67.1327 90.2631 68.4993 88.3033 69.4769C86.363 70.4545 84.0993 70.9433 81.5123 70.9433ZM81.5123 65.8857C83.041 65.8857 84.3541 65.6264 85.4516 65.1077C86.5492 64.569 87.3919 63.8009 87.9799 62.8034C88.5875 61.8058 88.8912 60.6187 88.8912 59.2421C88.8912 57.8655 88.5875 56.6785 87.9799 55.6809C87.3919 54.6834 86.5492 53.9253 85.4516 53.4065C84.3541 52.8679 83.041 52.5985 81.5123 52.5985C80.0032 52.5985 78.6999 52.8679 77.6023 53.4065C76.5048 53.9253 75.6523 54.6834 75.0447 55.6809C74.4371 56.6785 74.1334 57.8655 74.1334 59.2421C74.1334 60.6187 74.4371 61.8058 75.0447 62.8034C75.6523 63.8009 76.5048 64.569 77.6023 65.1077C78.6999 65.6264 80.0032 65.8857 81.5123 65.8857Z" fill="#EFEBE0"/>
<path d="M103.353 48.0198V67.9506L100.854 65.4668H117.376V70.4644H97.797V48.0198H103.353Z" fill="#EFEBE0"/>
<path d="M124.362 60.529C124.362 61.6263 124.567 62.5839 124.979 63.4019C125.41 64.1999 126.027 64.8184 126.831 65.2573C127.634 65.6763 128.624 65.8857 129.8 65.8857C130.996 65.8857 131.995 65.6763 132.799 65.2573C133.602 64.8184 134.21 64.1999 134.621 63.4019C135.033 62.5839 135.239 61.6263 135.239 60.529V48.0198H140.766V60.7983C140.766 62.8333 140.305 64.6089 139.384 66.1251C138.482 67.6414 137.209 68.8285 135.562 69.6864C133.916 70.5243 131.995 70.9433 129.8 70.9433C127.605 70.9433 125.684 70.5243 124.038 69.6864C122.392 68.8285 121.108 67.6414 120.187 66.1251C119.266 64.6089 118.805 62.8333 118.805 60.7983V48.0198H124.362V60.529Z" fill="#EFEBE0"/>
<path d="M151.761 50.5037H157.318V70.4644H151.761V50.5037ZM143.177 48.0198H165.902V53.0175H143.177V48.0198Z" fill="#EFEBE0"/>
<path d="M168.565 48.0198H174.121V70.4644H168.565V48.0198Z" fill="#EFEBE0"/>
<path d="M190.377 70.9433C187.79 70.9433 185.517 70.4545 183.557 69.4769C181.617 68.4993 180.108 67.1327 179.03 65.377C177.952 63.6213 177.413 61.5764 177.413 59.2421C177.413 56.9079 177.952 54.863 179.03 53.1073C180.108 51.3516 181.617 49.985 183.557 49.0074C185.517 48.0298 187.79 47.541 190.377 47.541C192.964 47.541 195.228 48.0298 197.168 49.0074C199.128 49.985 200.647 51.3516 201.725 53.1073C202.823 54.863 203.371 56.9079 203.371 59.2421C203.371 61.5764 202.823 63.6213 201.725 65.377C200.647 67.1327 199.128 68.4993 197.168 69.4769C195.228 70.4545 192.964 70.9433 190.377 70.9433ZM190.377 65.8857C191.906 65.8857 193.219 65.6264 194.317 65.1077C195.414 64.569 196.257 63.8009 196.845 62.8034C197.453 61.8058 197.756 60.6187 197.756 59.2421C197.756 57.8655 197.453 56.6785 196.845 55.6809C196.257 54.6834 195.414 53.9253 194.317 53.4065C193.219 52.8679 191.906 52.5985 190.377 52.5985C188.868 52.5985 187.565 52.8679 186.467 53.4065C185.37 53.9253 184.517 54.6834 183.91 55.6809C183.302 56.6785 182.998 57.8655 182.998 59.2421C182.998 60.6187 183.302 61.8058 183.91 62.8034C184.517 63.8009 185.37 64.569 186.467 65.1077C187.565 65.6264 188.868 65.8857 190.377 65.8857Z" fill="#EFEBE0"/>
<path d="M227.094 66.604L225.301 66.9332V48.0198H230.68V70.4644H223.684L210.249 51.5511L212.042 51.2219V70.4644H206.662V48.0198H213.865L227.094 66.604Z" fill="#EFEBE0"/>
<path d="M233.911 63.1325H239.526C239.624 63.8109 239.928 64.4094 240.437 64.9281C240.947 65.4468 241.623 65.8458 242.466 66.1251C243.328 66.4045 244.328 66.5441 245.464 66.5441C247.091 66.5441 248.365 66.3147 249.286 65.8558C250.227 65.3969 250.697 64.7486 250.697 63.9106C250.697 63.2722 250.423 62.7834 249.874 62.4442C249.345 62.0851 248.346 61.8258 246.876 61.6662L242.613 61.2173C239.653 60.918 237.507 60.2197 236.175 59.1224C234.862 58.0251 234.205 56.5288 234.205 54.6335C234.205 53.1372 234.636 51.8604 235.499 50.803C236.38 49.7456 237.605 48.9376 239.173 48.379C240.761 47.8203 242.613 47.541 244.73 47.541C246.827 47.541 248.679 47.8503 250.286 48.4687C251.893 49.0872 253.177 49.9451 254.137 51.0424C255.097 52.1397 255.617 53.4165 255.695 54.8729H250.08C250.002 54.2744 249.727 53.7657 249.257 53.3467C248.806 52.9078 248.189 52.5686 247.405 52.3292C246.64 52.0698 245.71 51.9402 244.612 51.9402C243.142 51.9402 241.966 52.1596 241.084 52.5985C240.222 53.0175 239.791 53.626 239.791 54.424C239.791 55.0226 240.045 55.4914 240.555 55.8306C241.084 56.1697 242.015 56.4191 243.348 56.5787L247.846 57.0875C249.904 57.3069 251.55 57.6561 252.785 58.1349C254.019 58.6137 254.911 59.2721 255.46 60.11C256.009 60.9479 256.283 62.0053 256.283 63.2822C256.283 64.8184 255.822 66.1651 254.901 67.3222C254 68.4594 252.726 69.3472 251.08 69.9856C249.453 70.6241 247.552 70.9433 245.376 70.9433C243.122 70.9433 241.143 70.6141 239.438 69.9557C237.752 69.2973 236.42 68.3896 235.44 67.2324C234.479 66.0553 233.97 64.6887 233.911 63.1325Z" fill="#EFEBE0"/>
<path d="M32 11.8333L32 23.6667L16 23.6667L3.92329e-06 11.8333L4.44055e-06 -1.39876e-06L16 -6.99382e-07L32 11.8333Z" fill="#EFEBE0"/>
<path d="M32 35.5L32 47.3333L16 47.3333L2.88879e-06 35.5L3.40604e-06 23.6667L16 23.6667L32 35.5Z" fill="#EFEBE0"/>
<path d="M32 59.1667L32 71L16 71L1.85429e-06 59.1667L2.37154e-06 47.3333L16 47.3333L32 59.1667Z" fill="#EFEBE0"/>
</svg>
