<svg width="268" height="49" viewBox="0 0 268 49" fill="none" xmlns="http://www.w3.org/2000/svg">
<path d="M21.2218 0.707296C19.8537 0.807953 18.7822 1.92637 18.7822 3.29084C18.7822 3.36594 18.7854 3.43943 18.7919 3.51293V6.5055C17.8875 6.8072 17.1291 7.12052 16.4013 7.47735L16.4041 7.48012L16.2955 7.52965C16.3307 7.51211 16.366 7.49468 16.4013 7.47735L14.2578 5.34554C13.7731 4.78313 13.055 4.43003 12.2542 4.43003C11.5944 4.43003 10.993 4.66969 10.531 5.06433L5.38098 10.1404C4.9822 10.5925 4.73905 11.1869 4.73905 11.8356C4.73905 12.6248 5.0973 13.3326 5.66304 13.8072L7.82065 15.9338C7.4851 16.5777 7.14954 17.3574 6.8691 18.1626L6.83019 18.2936L3.78263 18.2792C3.71779 18.2745 3.64322 18.2713 3.56703 18.2713C2.18266 18.2713 1.04793 19.3274 0.945801 20.6663V27.8561C1.04631 29.2046 2.18266 30.2607 3.56703 30.2607C3.64322 30.2607 3.71779 30.2575 3.79236 30.2511H6.83019C7.13662 31.1434 7.45486 31.8931 7.81878 32.6112L7.82227 32.6078L7.8709 32.7132C7.85342 32.6793 7.83605 32.6453 7.81878 32.6112L5.65818 34.7168C5.08919 35.1961 4.73094 35.9055 4.73094 36.6964C4.73094 37.3467 4.97248 37.941 5.37287 38.3964L10.5229 43.4708C10.9266 43.8639 11.481 44.1083 12.0953 44.1083H12.1278C12.9626 44.0876 13.7115 43.7392 14.2481 43.188L16.4057 41.0614C17.059 41.3922 17.8501 41.7229 18.6671 41.9993L18.8 42.0392L18.7854 45.0398C18.7805 45.1037 18.7773 45.1772 18.7773 45.2507C18.7773 46.6152 19.8488 47.7352 21.2072 47.8343H24.8595L24.9227 45.4656L21.3483 45.484C21.264 45.3769 21.2121 45.2395 21.2121 45.0909C21.2121 45.0782 21.2121 45.0654 21.2137 45.0526L21.2332 41.2004C21.2332 41.1733 21.2202 41.1493 21.217 41.1237C21.2089 41.0391 21.1927 40.9608 21.1683 40.8857L21.17 40.8937C21.1505 40.809 21.1246 40.7339 21.0921 40.662L21.0954 40.67C21.0111 40.5326 20.9187 40.4143 20.8149 40.3073C20.7679 40.269 20.7144 40.2338 20.6593 40.2018L20.6528 40.1987C20.5815 40.1507 20.5021 40.1092 20.4162 40.0772L20.4081 40.074C20.3854 40.066 20.3692 40.0485 20.3448 40.0421C18.9767 39.6584 17.784 39.1605 16.6737 38.5405C16.5294 38.4755 16.3653 38.4379 16.1917 38.4379C16.1561 38.4363 16.1269 38.4443 16.0912 38.4459C15.7994 38.4587 15.5368 38.5738 15.3374 38.7543C15.3245 38.7671 15.305 38.7607 15.292 38.7735L12.5282 41.4976C12.3547 41.6686 12.178 41.7197 12.2396 41.782L7.15927 36.8274C7.17872 36.6676 7.25653 36.5286 7.37 36.428L10.1485 33.7198L10.1663 33.6783C10.3527 33.4818 10.4727 33.2213 10.4857 32.9337V32.9305C10.4873 32.897 10.4938 32.8714 10.4938 32.8379V32.8331C10.4938 32.6318 10.4419 32.4416 10.3511 32.2771L10.3543 32.2834C9.76266 31.2673 9.25366 30.0929 8.89054 28.8563L8.86136 28.7413C8.85488 28.7173 8.83543 28.6997 8.82732 28.6757C8.75924 28.5256 8.68143 28.3945 8.59065 28.2763L8.59389 28.2811C8.48852 28.1836 8.37343 28.0942 8.25023 28.0175L8.2405 28.0127C8.15783 27.9727 8.06381 27.9408 7.9633 27.9216L7.9552 27.92C7.90819 27.9056 7.84983 27.8944 7.78985 27.8865H7.78337C7.75095 27.8833 7.72339 27.8673 7.68935 27.8673H3.77939C3.53299 27.8705 3.37737 27.7794 3.37413 27.8641L3.33846 20.8197C3.44707 20.7366 3.58324 20.6854 3.734 20.6854C3.74859 20.6854 3.76156 20.6854 3.77615 20.687L7.69097 20.7062C7.93737 20.6998 8.16431 20.6199 8.35073 20.4889L8.34749 20.4921C8.3864 20.4698 8.41882 20.4474 8.45124 20.4234L8.448 20.425C8.62469 20.2844 8.75762 20.0959 8.82894 19.8802L8.83056 19.8722C8.83543 19.8562 8.85326 19.8498 8.85812 19.8323C9.24788 18.4877 9.75126 17.3182 10.3794 16.2266C10.4487 16.0801 10.4889 15.9128 10.4889 15.7356V15.7324C10.4905 15.7021 10.484 15.6797 10.4824 15.6494C10.4711 15.3554 10.3527 15.0902 10.1631 14.8904L10.1469 14.8521L7.38297 12.1279C7.21783 11.9622 7.15942 11.795 7.10707 11.8342L7.09767 11.8435C7.10079 11.8397 7.10392 11.8365 7.10707 11.8342L12.1261 6.83623C12.2899 6.84901 12.4325 6.9289 12.5282 7.04553L12.5298 7.04713L15.2807 9.78406C15.3099 9.81282 15.3553 9.80164 15.3861 9.8272C15.5887 10.0205 15.8643 10.1404 16.169 10.1404C16.3798 10.1404 16.5759 10.0828 16.7445 9.98378L16.7396 9.98697C17.7706 9.4054 18.9637 8.9053 20.2168 8.54581L20.3335 8.51705C20.3562 8.51066 20.3724 8.49309 20.3951 8.4867C20.4875 8.45314 20.5653 8.4116 20.6399 8.36367L20.635 8.36687C20.8992 8.22307 21.0905 7.97702 21.1554 7.68463L21.157 7.67824C21.1797 7.60954 21.1975 7.52965 21.2056 7.44657V7.44177C21.2072 7.41621 21.2202 7.39384 21.2202 7.36828V3.51453C21.2202 3.27327 21.311 3.11669 21.2218 3.11509L24.7962 3.09672L24.8659 0.707296H21.2218Z" fill="#EFEBE0"/>
<path d="M24.8562 16.6863C24.0912 16.6863 23.3522 16.7963 22.6546 17.0012C19.4751 17.9349 17.1562 20.8387 17.1562 24.2756C17.1562 27.7124 19.4751 30.6163 22.6546 31.55C23.3522 31.7548 24.0912 31.8648 24.8562 31.8648V29.4682C21.9464 29.4682 19.5878 27.1435 19.5878 24.2756C19.5878 21.4076 21.9464 19.0829 24.8562 19.0829V16.6863Z" fill="#EFEBE0"/>
<path d="M47.1214 1.14383C49.2937 1.14383 51.1591 1.52163 52.7174 2.27721C54.2994 3.00918 55.5037 4.04811 56.3301 5.39399C57.1801 6.73987 57.6051 8.31007 57.6051 10.1046C57.6051 11.8991 57.1801 13.4693 56.3301 14.8152C55.5037 16.1611 54.2994 17.2118 52.7174 17.9674C51.1591 18.6993 49.2937 19.0653 47.1214 19.0653H35.5043V13.6464H46.7672C48.0423 13.6464 49.0458 13.3394 49.7778 12.7255C50.5097 12.088 50.8757 11.2143 50.8757 10.1046C50.8757 8.99482 50.5097 8.13298 49.7778 7.51907C49.0458 6.88155 48.0423 6.56278 46.7672 6.56278H36.1064L39.1169 3.446V27.7073H32.423V1.14383H47.1214Z" fill="#EFEBE0"/>
<path d="M60.1126 22.3592V16.9757H78.4591V22.3592H60.1126ZM73.7839 1.14383L86.0385 27.7073H78.9195L68.4004 3.94186H70.4546L59.9709 27.7073H52.8519L65.1065 1.14383H73.7839Z" fill="#EFEBE0"/>
<path d="M113.856 16.7277C113.597 19.0181 112.806 21.0369 111.483 22.7842C110.161 24.5079 108.414 25.8538 106.241 26.8219C104.069 27.7899 101.59 28.274 98.8037 28.274C95.7577 28.274 93.0778 27.6955 90.7638 26.5385C88.4734 25.3815 86.6907 23.7641 85.4157 21.6863C84.1406 19.6084 83.5031 17.1882 83.5031 14.4256C83.5031 11.663 84.1406 9.24274 85.4157 7.16489C86.6907 5.08703 88.4734 3.46961 90.7638 2.31263C93.0778 1.15564 95.7577 0.577148 98.8037 0.577148C101.59 0.577148 104.069 1.06119 106.241 2.02928C108.414 2.99738 110.161 4.34326 111.483 6.06693C112.806 7.79061 113.597 9.80943 113.856 12.1234H107.127C106.891 10.9192 106.407 9.89207 105.675 9.04204C104.966 8.19201 104.022 7.54268 102.841 7.09405C101.684 6.62181 100.338 6.38569 98.8037 6.38569C97.0328 6.38569 95.5098 6.71626 94.2348 7.3774C92.9597 8.01492 91.9798 8.93579 91.2951 10.14C90.6103 11.3442 90.268 12.7727 90.268 14.4256C90.268 16.0784 90.6103 17.5069 91.2951 18.7111C91.9798 19.9154 92.9597 20.848 94.2348 21.5092C95.5098 22.1467 97.0328 22.4654 98.8037 22.4654C100.338 22.4654 101.684 22.2411 102.841 21.7925C104.022 21.3439 104.966 20.6945 105.675 19.8445C106.407 18.9945 106.891 17.9556 107.127 16.7277H113.856Z" fill="#EFEBE0"/>
<path d="M115.121 27.7073V1.14383H121.78V22.3592L119.973 20.9779L135.699 1.14383H142.783L121.142 27.7073H115.121ZM127.836 14.8506L132.653 10.7067L143.137 27.7073H135.557L127.836 14.8506Z" fill="#EFEBE0"/>
<path d="M147.754 12.8318H157.706C158.957 12.8318 159.949 12.5484 160.681 11.9817C161.413 11.3914 161.779 10.5768 161.779 9.53789C161.779 8.49896 161.413 7.69616 160.681 7.12947C159.949 6.53917 158.957 6.24402 157.706 6.24402H146.797L149.808 2.95015V27.7073H143.114V1.14383H158.591C160.575 1.14383 162.31 1.49801 163.798 2.20637C165.285 2.91473 166.442 3.89463 167.269 5.14607C168.095 6.3975 168.508 7.86144 168.508 9.53789C168.508 11.1907 168.095 12.6429 167.269 13.8943C166.442 15.1457 165.285 16.1256 163.798 16.834C162.31 17.5187 160.575 17.8611 158.591 17.8611H147.754V12.8318ZM152.039 15.2756H159.583L169.358 27.7073H161.602L152.039 15.2756Z" fill="#EFEBE0"/>
<path d="M170.38 1.14383H177.074V27.7073H170.38V1.14383Z" fill="#EFEBE0"/>
<path d="M206.824 16.1965C206.777 17.8021 206.458 19.3369 205.867 20.8008C205.277 22.2411 204.427 23.528 203.317 24.6614C202.208 25.7711 200.838 26.6566 199.209 27.3177C197.58 27.9552 195.679 28.274 193.507 28.274C191.429 28.274 189.481 27.967 187.663 27.3531C185.868 26.7392 184.286 25.842 182.917 24.6614C181.547 23.4571 180.485 22.005 179.729 20.305C178.973 18.5813 178.596 16.6215 178.596 14.4256C178.596 12.2297 178.973 10.2817 179.729 8.58161C180.508 6.85793 181.583 5.4058 182.952 4.2252C184.345 3.02099 185.963 2.11193 187.804 1.49802C189.67 0.884104 191.7 0.577148 193.896 0.577148C196.753 0.577148 199.233 1.02578 201.334 1.92303C203.459 2.82029 205.159 4.04811 206.434 5.6065C207.733 7.16489 208.559 8.9594 208.913 10.99H202.149C201.912 9.99833 201.417 9.1483 200.661 8.43994C199.905 7.70796 198.949 7.15308 197.792 6.77529C196.659 6.3975 195.36 6.2086 193.896 6.2086C192.125 6.2086 190.602 6.52736 189.327 7.16489C188.052 7.7788 187.061 8.69967 186.352 9.92749C185.644 11.1317 185.29 12.6311 185.29 14.4256C185.29 16.2201 185.656 17.7431 186.388 18.9945C187.143 20.2459 188.206 21.1904 189.575 21.8279C190.968 22.4654 192.598 22.7842 194.463 22.7842C196.281 22.7842 197.875 22.5127 199.244 21.9696C200.637 21.4265 201.735 20.6473 202.538 19.632C203.365 18.6167 203.837 17.4007 203.955 15.984L206.824 16.1965ZM195.242 18.8882V14.1422H209.161V27.7073H204.38L203.459 17.0819L204.805 18.8882H195.242Z" fill="#EFEBE0"/>
<path d="M211.25 1.14383H217.944V27.7073H211.25V1.14383ZM232.36 1.14383H239.018V27.7073H232.36V1.14383ZM214.969 11.3088H235.193V17.1882H214.969V11.3088Z" fill="#EFEBE0"/>
<path d="M250.127 4.08353H256.821V27.7073H250.127V4.08353ZM239.785 1.14383H267.163V7.05864H239.785V1.14383Z" fill="#EFEBE0"/>
<path d="M30.5774 42.8073H34.3974C34.4641 43.2606 34.6708 43.6606 35.0174 44.0073C35.3641 44.354 35.8241 44.6206 36.3974 44.8073C36.9841 44.994 37.6641 45.0873 38.4374 45.0873C39.5441 45.0873 40.4108 44.934 41.0374 44.6273C41.6774 44.3206 41.9974 43.8873 41.9974 43.3273C41.9974 42.9006 41.8108 42.574 41.4374 42.3473C41.0774 42.1073 40.3974 41.934 39.3974 41.8273L36.4974 41.5273C34.4841 41.3273 33.0241 40.8606 32.1174 40.1273C31.2241 39.394 30.7774 38.394 30.7774 37.1273C30.7774 36.1273 31.0708 35.274 31.6574 34.5673C32.2574 33.8606 33.0908 33.3206 34.1574 32.9473C35.2374 32.574 36.4974 32.3873 37.9374 32.3873C39.3641 32.3873 40.6241 32.594 41.7174 33.0073C42.8108 33.4206 43.6841 33.994 44.3374 34.7273C44.9908 35.4606 45.3441 36.314 45.3974 37.2873H41.5774C41.5241 36.8873 41.3374 36.5473 41.0174 36.2673C40.7108 35.974 40.2908 35.7473 39.7574 35.5873C39.2374 35.414 38.6041 35.3273 37.8574 35.3273C36.8574 35.3273 36.0574 35.474 35.4574 35.7673C34.8708 36.0473 34.5774 36.454 34.5774 36.9873C34.5774 37.3873 34.7508 37.7006 35.0974 37.9273C35.4574 38.154 36.0908 38.3206 36.9974 38.4273L40.0574 38.7673C41.4574 38.914 42.5774 39.1473 43.4174 39.4673C44.2574 39.7873 44.8641 40.2273 45.2374 40.7873C45.6108 41.3473 45.7974 42.054 45.7974 42.9073C45.7974 43.934 45.4841 44.834 44.8574 45.6073C44.2441 46.3673 43.3774 46.9606 42.2574 47.3873C41.1508 47.814 39.8574 48.0273 38.3774 48.0273C36.8441 48.0273 35.4974 47.8073 34.3374 47.3673C33.1908 46.9273 32.2841 46.3206 31.6174 45.5473C30.9641 44.7606 30.6174 43.8473 30.5774 42.8073Z" fill="#EFEBE0"/>
<path d="M54.6976 48.0273C52.9376 48.0273 51.3909 47.7006 50.0576 47.0473C48.7376 46.394 47.7109 45.4806 46.9776 44.3073C46.2443 43.134 45.8776 41.7673 45.8776 40.2073C45.8776 38.6473 46.2443 37.2806 46.9776 36.1073C47.7109 34.934 48.7376 34.0206 50.0576 33.3673C51.3909 32.714 52.9376 32.3873 54.6976 32.3873C56.4576 32.3873 57.9976 32.714 59.3176 33.3673C60.6509 34.0206 61.6843 34.934 62.4176 36.1073C63.1643 37.2806 63.5376 38.6473 63.5376 40.2073C63.5376 41.7673 63.1643 43.134 62.4176 44.3073C61.6843 45.4806 60.6509 46.394 59.3176 47.0473C57.9976 47.7006 56.4576 48.0273 54.6976 48.0273ZM54.6976 44.6473C55.7376 44.6473 56.6309 44.474 57.3776 44.1273C58.1243 43.7673 58.6976 43.254 59.0976 42.5873C59.5109 41.9206 59.7176 41.1273 59.7176 40.2073C59.7176 39.2873 59.5109 38.494 59.0976 37.8273C58.6976 37.1606 58.1243 36.654 57.3776 36.3073C56.6309 35.9473 55.7376 35.7673 54.6976 35.7673C53.6709 35.7673 52.7843 35.9473 52.0376 36.3073C51.2909 36.654 50.7109 37.1606 50.2976 37.8273C49.8843 38.494 49.6776 39.2873 49.6776 40.2073C49.6776 41.1273 49.8843 41.9206 50.2976 42.5873C50.7109 43.254 51.2909 43.7673 52.0376 44.1273C52.7843 44.474 53.6709 44.6473 54.6976 44.6473Z" fill="#EFEBE0"/>
<path d="M68.1563 32.7073V46.0273L66.4563 44.3673H77.6964V47.7073H64.3763V32.7073H68.1563Z" fill="#EFEBE0"/>
<path d="M81.0485 41.0673C81.0485 41.8006 81.1885 42.4406 81.4685 42.9873C81.7619 43.5206 82.1819 43.934 82.7285 44.2273C83.2752 44.5073 83.9485 44.6473 84.7485 44.6473C85.5619 44.6473 86.2419 44.5073 86.7885 44.2273C87.3352 43.934 87.7485 43.5206 88.0285 42.9873C88.3085 42.4406 88.4485 41.8006 88.4485 41.0673V32.7073H92.2085V41.2473C92.2085 42.6073 91.8952 43.794 91.2685 44.8073C90.6552 45.8206 89.7885 46.614 88.6685 47.1873C87.5485 47.7473 86.2419 48.0273 84.7485 48.0273C83.2552 48.0273 81.9485 47.7473 80.8285 47.1873C79.7085 46.614 78.8352 45.8206 78.2085 44.8073C77.5819 43.794 77.2685 42.6073 77.2685 41.2473V32.7073H81.0485V41.0673Z" fill="#EFEBE0"/>
<path d="M98.289 34.3673H102.069V47.7073H98.289V34.3673ZM92.449 32.7073H107.909V36.0473H92.449V32.7073Z" fill="#EFEBE0"/>
<path d="M108.321 32.7073H112.101V47.7073H108.321V32.7073Z" fill="#EFEBE0"/>
<path d="M121.76 48.0273C120 48.0273 118.453 47.7006 117.12 47.0473C115.8 46.394 114.773 45.4806 114.04 44.3073C113.307 43.134 112.94 41.7673 112.94 40.2073C112.94 38.6473 113.307 37.2806 114.04 36.1073C114.773 34.934 115.8 34.0206 117.12 33.3673C118.453 32.714 120 32.3873 121.76 32.3873C123.52 32.3873 125.06 32.714 126.38 33.3673C127.713 34.0206 128.747 34.934 129.48 36.1073C130.227 37.2806 130.6 38.6473 130.6 40.2073C130.6 41.7673 130.227 43.134 129.48 44.3073C128.747 45.4806 127.713 46.394 126.38 47.0473C125.06 47.7006 123.52 48.0273 121.76 48.0273ZM121.76 44.6473C122.8 44.6473 123.693 44.474 124.44 44.1273C125.187 43.7673 125.76 43.254 126.16 42.5873C126.573 41.9206 126.78 41.1273 126.78 40.2073C126.78 39.2873 126.573 38.494 126.16 37.8273C125.76 37.1606 125.187 36.654 124.44 36.3073C123.693 35.9473 122.8 35.7673 121.76 35.7673C120.733 35.7673 119.847 35.9473 119.1 36.3073C118.353 36.654 117.773 37.1606 117.36 37.8273C116.947 38.494 116.74 39.2873 116.74 40.2073C116.74 41.1273 116.947 41.9206 117.36 42.5873C117.773 43.254 118.353 43.7673 119.1 44.1273C119.847 44.474 120.733 44.6473 121.76 44.6473Z" fill="#EFEBE0"/>
<path d="M145.339 45.1273L144.119 45.3473V32.7073H147.779V47.7073H143.019L133.879 35.0673L135.099 34.8473V47.7073H131.439V32.7073H136.339L145.339 45.1273Z" fill="#EFEBE0"/>
<path d="M148.577 42.8073H152.397C152.463 43.2606 152.67 43.6606 153.017 44.0073C153.363 44.354 153.823 44.6206 154.397 44.8073C154.983 44.994 155.663 45.0873 156.437 45.0873C157.543 45.0873 158.41 44.934 159.037 44.6273C159.677 44.3206 159.997 43.8873 159.997 43.3273C159.997 42.9006 159.81 42.574 159.437 42.3473C159.077 42.1073 158.397 41.934 157.397 41.8273L154.497 41.5273C152.483 41.3273 151.023 40.8606 150.117 40.1273C149.223 39.394 148.777 38.394 148.777 37.1273C148.777 36.1273 149.07 35.274 149.657 34.5673C150.257 33.8606 151.09 33.3206 152.157 32.9473C153.237 32.574 154.497 32.3873 155.937 32.3873C157.363 32.3873 158.623 32.594 159.717 33.0073C160.81 33.4206 161.683 33.994 162.337 34.7273C162.99 35.4606 163.343 36.314 163.397 37.2873H159.577C159.523 36.8873 159.337 36.5473 159.017 36.2673C158.71 35.974 158.29 35.7473 157.757 35.5873C157.237 35.414 156.603 35.3273 155.857 35.3273C154.857 35.3273 154.057 35.474 153.457 35.7673C152.87 36.0473 152.577 36.454 152.577 36.9873C152.577 37.3873 152.75 37.7006 153.097 37.9273C153.457 38.154 154.09 38.3206 154.997 38.4273L158.057 38.7673C159.457 38.914 160.577 39.1473 161.417 39.4673C162.257 39.7873 162.863 40.2273 163.237 40.7873C163.61 41.3473 163.797 42.054 163.797 42.9073C163.797 43.934 163.483 44.834 162.857 45.6073C162.243 46.3673 161.377 46.9606 160.257 47.3873C159.15 47.814 157.857 48.0273 156.377 48.0273C154.843 48.0273 153.497 47.8073 152.337 47.3673C151.19 46.9273 150.283 46.3206 149.617 45.5473C148.963 44.7606 148.617 43.8473 148.577 42.8073Z" fill="#EFEBE0"/>
</svg>
